<?xml version="1.0" encoding="utf-8"?>
<!-- Generator: Adobe Illustrator 24.0.2, SVG Export Plug-In . SVG Version: 6.00 Build 0)  -->
<svg version="1.1" id="Ebene_1" xmlns="http://www.w3.org/2000/svg" xmlns:xlink="http://www.w3.org/1999/xlink" x="0px" y="0px"
	 viewBox="0 0 470.6 55.3" style="enable-background:new 0 0 470.6 55.3;" xml:space="preserve">
<style type="text/css">
	.st0{fill:#383B3F;}
	.st1{fill:#004480;}
	.st2{fill:#008255;}
	.st3{fill:#C50A33;}
</style>
<path class="st0" d="M440,54.1h28.6l2-8h-20.3V1h-11.4l1.1,8.2V54.1z M379.6,27.6c0-11.4,5.6-19.8,14.1-19.8s14,8.4,14,19.8
	s-5.6,19.8-14,19.8S379.6,39,379.6,27.6 M394,0.2c-14.5,0-25.4,12.1-25.4,27.9c0,15.2,8.8,27,24.4,27c14.5,0,25.6-12.1,25.6-28
	C418.6,11.4,410.4,0.2,394,0.2 M313.4,27.6c0-11.4,5.6-19.8,14.1-19.8s14,8.4,14,19.8s-5.6,19.8-14,19.8S313.4,39,313.4,27.6
	 M327.9,0.2c-14.5,0-25.4,12.1-25.4,27.9c0,15.2,8.8,27,24.4,27c14.5,0,25.6-12.1,25.6-28C352.4,11.4,344.2,0.2,327.9,0.2
	 M262.5,27.4V8.7h3.6c5,0,9.5,2.8,9.5,8.8c0,5.6-4.4,9.9-9.5,9.9L262.5,27.4L262.5,27.4z M251.1,1l1.1,8.2v44.9h11.2l-0.9-6.8V35.3
	h2.3c12.4,0,21.5-8.3,21.5-17.8c0-11.3-9.2-16.5-18.8-16.5L251.1,1L251.1,1z M225.6,1h-11.4l1.1,8.2V23h-24.8V1H179l1.1,8.2v44.9
	h11.2l-0.9-6.8V31.7h24.8v22.4h11.2l-0.9-6.8V1z M159.2,6.7c-5.1-4.5-11-6.6-18.2-6.6c-14.9,0-26.4,11.8-26.4,28.6
	c0,17.6,12.6,26.5,25.7,26.5c6.8,0,14.5-2.8,19.5-7.4l-1.9-8.2c-4.6,4.9-10.6,7.5-16,7.5c-8.6,0-16.5-6.8-16.5-19.1
	c0-10.6,6.8-19.9,15.7-19.9c4.7,0,9.5,1.8,13.9,6.4L159.2,6.7z M0,49.7c0,0,5.9,5.4,16.2,5.4c10.2,0,16.6-7,16.6-16
	C32.8,22.8,10,22.9,10,13.7c0-3.7,3.5-6,6.4-6c7.8,0,13,4.4,13,4.4l2-7.9c-2.8-1.7-7.9-4-14.8-4C6.8,0.1,0.6,7.1,0.6,15.7
	c0,15.6,22.6,16,22.6,25.1c0,3.6-3.1,6.6-7.5,6.6c-8.3,0-14.9-6.6-14.9-6.6L0,49.7z"/>
<path class="st1" d="M89.2,20.1c-2.5-18.8-15.5-30.3-24.4-7.2c-1.6,4.2-6.6,24.1-9.1,28l11.5-2.9c0.8-3.3,4.1-17.8,6.7-24.3
	c6.1-15.3,13.3-2.4,14.6,3.9L89.2,20.1z"/>
<path class="st2" d="M78.8,53.1c11,4.3,32.7,3.8,18.7-16.8C95,32.6,82.3,17.2,80.5,12.9l-3.7,11.4c2.3,2.5,11,13.3,14.8,19.1
	c7.3,11.3-3.6,11.9-10.9,10.2L78.8,53.1z"/>
<path class="st3" d="M57.2,28.5c-14.2,11.9-17.5,30.8,4.6,26c4.3-0.9,21.8-6.4,26.3-6.3l-6.2-8.4c-3.2,1.1-15.2,5.3-21.9,6.6
	c-15.8,3-8.9-11.6-4.4-15.9L57.2,28.5z"/>
</svg>
